<svg xmlns="http://www.w3.org/2000/svg" width="54" height="50" viewBox="0 0 54 50">
  <g id="Group_8059" data-name="Group 8059" transform="translate(-297.089 -1834.922)">
    <ellipse id="Ellipse_399" data-name="Ellipse 399" cx="27" cy="25" rx="27" ry="25" transform="translate(297.089 1834.922)" fill="rgba(255,51,0,0.15)" opacity="0.8"/>
    <path id="Path_26731" data-name="Path 26731" d="M96.32,39.75l-.694-.694a4.173,4.173,0,0,1-.417-.463c-.093-.093-.185-.231-.278-.324-.37-.417-.787-.879-1.157-1.3l-.6-.694a53.144,53.144,0,0,0-5.554-5.692l-.139-.139c-.278-.278-.555-.509-.879-.787l-.139-.139-.926-.833c-.926-.833-1.9-1.712-2.869-2.638l-.417-.37,1.481-1.62c.926-1.064,1.851-2.036,2.731-3.055.046-.046.093-.139.185-.231.046-.046.093-.093.093-.139.093-.093.139-.185.185-.231a2.473,2.473,0,0,1,.694-.694,1.279,1.279,0,0,1,1.018-.046c1.018.324.879,1.2.833,1.666,0,.139-.046.231-.046.324a2.969,2.969,0,0,0,1.944,2.823,2.978,2.978,0,0,0,3.564-4.3,3.076,3.076,0,0,0-3.008-1.481H91.83a1.367,1.367,0,0,1-1.25-.648,1.13,1.13,0,0,1,.093-1.25,1.114,1.114,0,0,1,.278-.37c.278-.278.555-.555.833-.787l1.25-1.111c.417-.37.833-.741,1.25-1.157.555-.463,1.064-.972,1.62-1.481l.509-.509.417.417c.741.787,1.435,1.574,2.129,2.314q1.041,1.18,2.083,2.222l.185.185a1.845,1.845,0,0,0,.6.463v-.972a3.9,3.9,0,0,1,2.268-3.61,3.856,3.856,0,0,1,4.35.509l.185.185a3.914,3.914,0,0,1,1.3,3.934,4.116,4.116,0,0,1-4.443,3.193,1.718,1.718,0,0,0-.417.093.351.351,0,0,0,.093.185l.046.046c0,.046.046.046.046.093.463.463,1.018.926,1.481,1.388.278.231.509.463.787.694l.139.139c.046.046.139.093.185.185l2.731,2.731-.509.509a5.068,5.068,0,0,1-.509.463c-.833.741-1.944,1.759-3.055,2.777l-.093.093h-.046c-.555.463-2.222,2.129-4.674,4.674l-.093.093c-.046.046-.093.046-.139.093-.278.278-.509.509-.741.787a2.646,2.646,0,0,0-.324.37l-.37.417-.139.139a2.013,2.013,0,0,0-.278.324c-.741.741-1.435,1.481-2.222,2.222Zm-2.268-4.165.555.648c.37.417.787.879,1.157,1.3.093.093.185.231.278.324a1.227,1.227,0,0,1,.231.278L96.5,37.9c.741-.741,1.481-1.481,2.175-2.222.093-.093.185-.231.278-.324l.509-.509c.093-.139.231-.231.324-.37.278-.278.509-.555.787-.833a.813.813,0,0,1,.231-.185c1.8-1.9,4.073-4.165,4.767-4.767.046-.046.093-.046.139-.093,1.111-1.018,2.175-1.99,3.008-2.731l.139-.139-.185-.185q-.833-.9-1.666-1.666l-.139-.139c-.046-.046-.139-.093-.185-.185-.231-.231-.463-.417-.741-.648-.509-.463-1.064-.926-1.527-1.435a.639.639,0,0,1-.139-.185l-.093-.139A1.383,1.383,0,0,1,104,19.664a2.277,2.277,0,0,1,1.435-.6h.139a2.9,2.9,0,0,0,3.147-2.268,2.869,2.869,0,0,0-.926-2.869l-.046-.046a2.949,2.949,0,0,0-4.813,2.268v.278c0,.463.046,1.157-.417,1.527a.942.942,0,0,1-.694.278,2.535,2.535,0,0,1-1.481-.833c-.046-.046-.093-.139-.139-.185l-.046-.046c-.694-.741-1.435-1.481-2.129-2.268-.555-.648-1.157-1.25-1.759-1.9-.463.417-.879.787-1.3,1.2-.417.37-.833.741-1.25,1.157l-1.25,1.111c-.278.231-.509.463-.787.741-.046.046-.093.093-.093.139-.093.139-.093.185-.093.185a.562.562,0,0,0,.231.046h.37a3.96,3.96,0,0,1,3.749,2.036,4.127,4.127,0,0,1-3.471,6.2,3.949,3.949,0,0,1-1.435-.278A4.111,4.111,0,0,1,88.22,21.7a1.9,1.9,0,0,1,.046-.509c0-.139.046-.324,0-.37a.143.143,0,0,1-.093-.046.162.162,0,0,1-.093-.046c-.139.046-.231.231-.37.37-.093.093-.185.231-.278.324l-.139.139c-.046.046-.093.139-.185.185-.926,1.018-1.8,1.99-2.777,3.055l-.509.787c.833.787,1.666,1.527,2.5,2.268l1.018.926c.324.278.648.555.972.879l.093.093A60.248,60.248,0,0,1,94.052,35.585Z" transform="translate(227.677 1834.357)" fill="#f30"/>
  </g>
</svg>
