<svg xmlns="http://www.w3.org/2000/svg" width="27.339" height="27.34" viewBox="0 0 27.339 27.34">
  <g id="Group_7813" data-name="Group 7813" transform="translate(-8.08 -1.65)">
    <g id="noun-career-2244584" transform="translate(-65.722 -2.158)">
      <path id="Path_25806" data-name="Path 25806" d="M100.23,4.307H95.7a.412.412,0,0,0-.412.412V9.555H90.764a.412.412,0,0,0-.412.412V14.8H85.826a.412.412,0,0,0-.412.412v4.836h-5.35a.412.412,0,0,0-.412.412V25.3H74.714a.412.412,0,0,0-.412.412v4.527a.412.412,0,0,0,.412.412H100.23a.412.412,0,0,0,.412-.412V4.719a.412.412,0,0,0-.411-.411Zm0,25.928H74.714V25.708h4.938a.412.412,0,0,0,.412-.412V20.461h5.35a.412.412,0,0,0,.412-.412V15.214h4.527a.412.412,0,0,0,.412-.412V9.966h4.527a.412.412,0,0,0,.412-.412V4.719h4.527Z" fill="#fff" stroke="#fff" stroke-width="1"/>
      <path id="Path_25807" data-name="Path 25807" d="M121.158,112.374a.206.206,0,0,0,.291.007l8.735-8.312v2.4a.206.206,0,1,0,.412,0v-3.087h-3.087a.206.206,0,1,0,0,.412h2.366l-8.709,8.288a.206.206,0,0,0-.007.291Z" transform="translate(-44.563 -94.343)" fill="#fff" stroke="#fff" stroke-width="1"/>
    </g>
  </g>
</svg>
