<svg xmlns="http://www.w3.org/2000/svg" width="31.076" height="25.443" viewBox="0 0 31.076 25.443">
  <g id="Group_8088" data-name="Group 8088" transform="translate(-310.013 -1848.397)">
    <g id="reshot-icon-speed-dial-PTBGNUVYDC" transform="translate(310.013 1848.397)">
      <path id="Path_26753" data-name="Path 26753" d="M89.436,102.957a4.528,4.528,0,0,1-2.881-1.068A4.432,4.432,0,0,1,85,98.878a4.538,4.538,0,0,1,1.036-3.237c1.424-1.683,7.931-3.949,8.675-4.208a.6.6,0,0,1,.615.129.738.738,0,0,1,.227.615c-.129.777-1.327,7.542-2.752,9.226A4.369,4.369,0,0,1,89.436,102.957ZM94.1,93.084c-2.719,1-6.248,2.493-7.057,3.431a3.137,3.137,0,0,0-.745,2.3,3.078,3.078,0,0,0,1.1,2.136,3.219,3.219,0,0,0,4.4-.356C92.608,99.655,93.547,95.867,94.1,93.084Z" transform="translate(-74.416 -81.365)" fill="#099"/>
      <path id="Path_26754" data-name="Path 26754" d="M79.815,85.841H55.925a.629.629,0,0,1-.518-.259,16.366,16.366,0,0,1-3.075-9.42A15.539,15.539,0,1,1,83.408,76.1a16.793,16.793,0,0,1-3.043,9.517A.667.667,0,0,1,79.815,85.841ZM56.249,84.546H79.491a15.568,15.568,0,0,0,2.622-8.481,14.244,14.244,0,1,0-28.486.065A15.44,15.44,0,0,0,56.249,84.546Z" transform="translate(-52.332 -60.398)" fill="#099"/>
      <path id="Path_26755" data-name="Path 26755" d="M67.279,83.651A.649.649,0,0,1,66.632,83a10.909,10.909,0,1,1,21.818-.032.647.647,0,1,1-1.295,0A9.614,9.614,0,1,0,67.927,83,.649.649,0,0,1,67.279,83.651Z" transform="translate(-62.003 -68.243)" fill="#099"/>
    </g>
  </g>
</svg>
