<svg xmlns="http://www.w3.org/2000/svg" width="26.334" height="31.547" viewBox="0 0 26.334 31.547">
  <g id="Group_7816" data-name="Group 7816" transform="translate(-8.581 -0.848)">
    <g id="Group_7817" data-name="Group 7817" transform="translate(-126.349 -20.685)">
      <path id="Path_25812" data-name="Path 25812" d="M139.813,50.9h6.025l5.5,1.862a1.386,1.386,0,0,0,.414.067,1.289,1.289,0,0,0,1.222-.872l.363-1.057h3.029a1.074,1.074,0,0,0,1.091-1.07V38.846l3.484-10.2h0a1.262,1.262,0,0,0-.061-.976,1.292,1.292,0,0,0-.744-.653l-2.693-.905V24.786a1.074,1.074,0,0,0-1.074-1.07h-6.012l-5.5-1.862a1.3,1.3,0,0,0-1.636.8l-.363,1.057H139.83a1.074,1.074,0,0,0-1.091,1.07V35.77l-3.484,10.2a1.262,1.262,0,0,0,.061.976,1.292,1.292,0,0,0,.744.653l2.693.905V49.83a1.074,1.074,0,0,0,1.06,1.07Zm0-26.593h16.568a.465.465,0,0,1,.468.478V49.83a.465.465,0,0,1-.468.464H139.813a.465.465,0,0,1-.468-.464V24.786a.465.465,0,0,1,.468-.464ZM152.4,51.762a.673.673,0,0,1-.868.424l-3.8-1.286h4.962Zm7.54-24.169h0a.673.673,0,0,1,.428.858l-2.912,8.519V26.751Zm-16.158-4.74h0a.674.674,0,0,1,.646-.461.737.737,0,0,1,.222.037l3.814,1.286H143.5Zm-7.54,24.169h0a.673.673,0,0,1-.428-.858l2.925-8.519v10.22Z" fill="#fff" stroke="#fff" stroke-width="0.5"/>
      <path id="Path_25813" data-name="Path 25813" d="M295.2,265.716h4.753a.976.976,0,1,0,0-1.952H295.2a.976.976,0,1,0,0,1.952Zm0-1.279h4.753a.3.3,0,1,1,0,.606H295.2a.3.3,0,0,1,0-.606Z" transform="translate(-149.476 -227.432)" fill="#fff" stroke="#fff" stroke-width="0.5"/>
    </g>
  </g>
</svg>
