<svg xmlns="http://www.w3.org/2000/svg" width="32.504" height="26.607" viewBox="0 0 32.504 26.607">
  <g id="Group_7818" data-name="Group 7818" transform="translate(-7.445 -0.857)">
    <path id="noun-like-2543926" d="M89.591,51.645h-.032c-.276,0-.568.017-.879.048h0a.4.4,0,0,0-.351.324,13.842,13.842,0,0,1-2.32,5.961,5.662,5.662,0,0,1-3.559,2.284l-4.231.763V60.016h0a.4.4,0,0,0-.4-.4H70.392a.4.4,0,0,0-.4.4V77.354a.4.4,0,0,0,.4.4h7.431a.4.4,0,0,0,.4-.4V74.324a40.666,40.666,0,0,1,6.908,1.536,22.81,22.81,0,0,0,8.266.814,13.874,13.874,0,0,0,2.857-.082,2.317,2.317,0,0,0,1.263-.663,2.235,2.235,0,0,0,.522-1.548c0-.012,0-.023,0-.034a2.129,2.129,0,0,0-.577-1.353c-.053-.053-.13-.054-.187-.1.283,0,.589.051.853.025a2.8,2.8,0,0,0,1.69-.64,2.171,2.171,0,0,0,.563-1.821A1.661,1.661,0,0,0,99.7,69h.411a.4.4,0,0,0,.123-.019,2.474,2.474,0,0,0,1.428-1A2.9,2.9,0,0,0,102,66.432a1.992,1.992,0,0,0-1.342-1.906,2.026,2.026,0,0,0,.842-1.908,1.716,1.716,0,0,0-.774-1.508,4.655,4.655,0,0,0-2.065-.5H90.771a24.161,24.161,0,0,0,1.64-5.675,3.291,3.291,0,0,0-.487-2.3,2.863,2.863,0,0,0-2.32-.985h-.014Zm-.009.8a2.033,2.033,0,0,1,1.706.667,2.57,2.57,0,0,1,.331,1.759,27.384,27.384,0,0,1-1.785,6h0a.4.4,0,0,0,.373.535H98.6a4.275,4.275,0,0,1,1.708.382c.3.183.4.368.4.847h0c0,.01,0,.02,0,.03a1.126,1.126,0,0,1-.507,1.223,3.842,3.842,0,0,1-1.755.4,38.717,38.717,0,0,0-4.7.115h-.069v0c-.025,0-.057,0-.082,0h0a.4.4,0,0,0,.082.787h6.44a1.156,1.156,0,0,1,1.088,1.23,2.193,2.193,0,0,1-.216,1.136,1.661,1.661,0,0,1-.964.637H93.674a.4.4,0,0,0-.011.8h.01c1.045.028,2.65-.073,3.94.089a3.924,3.924,0,0,1,1.541.453.8.8,0,0,1,.434.864.421.421,0,0,0,0,.075,1.331,1.331,0,0,1-.321,1.217,2.112,2.112,0,0,1-1.225.429C96.92,72.241,95.336,72,93.931,72h0a.4.4,0,0,0-.107.781c.764.215,1.641.2,2.3.378a1.673,1.673,0,0,1,.77.395,1.288,1.288,0,0,1,.342.842,1.407,1.407,0,0,1-.309,1,1.536,1.536,0,0,1-.842.419,15.4,15.4,0,0,1-2.723.067h-.03a21.881,21.881,0,0,1-8-.791,41.566,41.566,0,0,0-7.112-1.54V61.835l4.373-.789a6.509,6.509,0,0,0,4.049-2.583,14.43,14.43,0,0,0,2.385-5.99c.19-.013.383-.03.555-.031ZM70.789,60.413h6.635V76.956H70.789Zm3.075,11.748a1.289,1.289,0,1,0,1.331,1.287A1.314,1.314,0,0,0,73.864,72.162Zm0,.8a.494.494,0,1,1-.534.492A.51.51,0,0,1,73.864,72.957Z" transform="translate(-62.298 -50.538)" fill="#fff" stroke="#fff" stroke-width="0.5"/>
  </g>
</svg>
