<svg xmlns="http://www.w3.org/2000/svg" width="37.577" height="24.298" viewBox="0 0 37.577 24.298">
  <g id="Group_7803" data-name="Group 7803" transform="translate(-2.96 -4.62)">
    <g id="Group_7760" data-name="Group 7760" transform="translate(3.46 5.12)">
      <g id="Group_7758" data-name="Group 7758">
        <path id="Path_25783" data-name="Path 25783" d="M206.9,184.72c-10.084,0-18.288,8.975-18.288,20.007h.661c0-10.633,7.908-19.283,17.628-19.283s17.628,8.65,17.628,19.283h.661c0-11.032-8.2-20.007-18.288-20.007Z" transform="translate(-188.61 -184.72)" fill="#fff" stroke="#fff" stroke-width="1"/>
      </g>
      <g id="Group_7761" data-name="Group 7761" transform="translate(12.797 7.677)">
        <path id="Path_25786" data-name="Path 25786" d="M2.791,6.226A2.768,2.768,0,0,1,3.7,6.38L9.471,0l.44.342L5.139,7.523a2.754,2.754,0,0,1,.442,1.493,2.791,2.791,0,1,1-2.79-2.79Zm0,5.023A2.223,2.223,0,0,0,4.578,7.692l-.117-.157L7.37,3.157,3.854,7.046l-.183-.08a2.2,2.2,0,0,0-.88-.182,2.232,2.232,0,0,0,0,4.465Z" transform="translate(6.602 0) rotate(34)" fill="#fff" stroke="#fff" stroke-width="1"/>
      </g>
    </g>
  </g>
</svg>
