<svg xmlns="http://www.w3.org/2000/svg" width="35.886" height="40.148" viewBox="0 0 35.886 40.148">
  <g id="Group_8122" data-name="Group 8122" transform="translate(-308.062 -1841.993)">
    <g id="reshot-icon-aim-RP3D42UEHX" transform="translate(308.162 1842.093)">
      <circle id="Ellipse_424" data-name="Ellipse 424" cx="14.828" cy="14.828" r="14.828" transform="translate(3.015 3.016)" fill="none" stroke="#fdfbf3" stroke-width="0.2"/>
      <g id="Group_8134" data-name="Group 8134" transform="translate(2.37 2.37)">
        <path id="Path_26778" data-name="Path 26778" d="M73.157,61.321A15.473,15.473,0,1,1,88.631,45.847,15.491,15.491,0,0,1,73.157,61.321Zm0-29.655A14.182,14.182,0,1,0,87.339,45.847,14.2,14.2,0,0,0,73.157,31.665Z" transform="translate(-57.684 -30.374)" fill="#f30" stroke="#fdfbf3" stroke-width="0.2"/>
        <path id="Path_26779" data-name="Path 26779" d="M155.131,136.358a8.536,8.536,0,1,1,8.536-8.536A8.546,8.546,0,0,1,155.131,136.358Zm0-15.781a7.245,7.245,0,1,0,7.245,7.245A7.253,7.253,0,0,0,155.131,120.577Z" transform="translate(-139.658 -112.349)" fill="#f30" stroke="#fdfbf3" stroke-width="0.2"/>
        <path id="Path_26780" data-name="Path 26780" d="M213.988,190.235a3.555,3.555,0,1,1,3.555-3.555A3.559,3.559,0,0,1,213.988,190.235Zm0-5.819a2.264,2.264,0,1,0,2.264,2.264A2.266,2.266,0,0,0,213.988,184.416Z" transform="translate(-198.515 -171.207)" fill="#f30" stroke="#fdfbf3" stroke-width="0.2"/>
      </g>
      <g id="Group_8135" data-name="Group 8135" transform="translate(0)">
        <path id="Path_26781" data-name="Path 26781" d="M248.37,39.948a.646.646,0,0,1-.646-.646V.646a.646.646,0,1,1,1.291,0V39.3A.646.646,0,0,1,248.37,39.948Z" transform="translate(-230.526)" fill="#f30" stroke="#fdfbf3" stroke-width="0.2"/>
        <path id="Path_26782" data-name="Path 26782" d="M62.35,221.706h-34.4a.646.646,0,1,1,0-1.291H62.35a.646.646,0,0,1,0,1.291Z" transform="translate(-27.309 -203.217)" fill="#f30" stroke="#fdfbf3" stroke-width="0.2"/>
      </g>
    </g>
  </g>
</svg>
