<svg id="logo_group" xmlns="http://www.w3.org/2000/svg" width="144.502" height="56.597" viewBox="0 0 144.502 56.597">
  <path id="Path_25797" data-name="Path 25797" d="M100.238,38.54H97.645v4.466H95.916V32.057h4.754c2.594,0,4.034,1.153,4.034,3.169a3.135,3.135,0,0,1-2.594,3.169A13.366,13.366,0,0,1,100.238,38.54Zm1.873-4.754c-.432-.288-.432-.288-1.729-.288H97.645v3.6h2.737c1.153,0,1.3,0,1.873-.432a1.851,1.851,0,0,0,.576-1.441A1.775,1.775,0,0,0,102.111,33.785Z" transform="translate(39.798 13.301)"/>
  <path id="Path_25798" data-name="Path 25798" d="M95.346,42.429a7.383,7.383,0,0,1-3.169.864,6.17,6.17,0,0,1-3.169-.864C88,41.853,87.567,40.7,87.567,38.54V32.057H89.3v6.771a3.025,3.025,0,1,0,6.051,0V32.057h1.729V38.54C96.931,40.7,96.5,41.853,95.346,42.429Z" transform="translate(36.334 13.301)"/>
  <path id="Path_25799" data-name="Path 25799" d="M83.741,43.192a5.734,5.734,0,0,1-6.051-5.619c0-3.313,2.593-5.619,6.051-5.619a5.734,5.734,0,0,1,6.051,5.619C89.792,40.887,87.2,43.192,83.741,43.192Zm0-9.8a4.178,4.178,0,1,0,4.178,4.178A4.009,4.009,0,0,0,83.741,33.4Z" transform="translate(32.236 13.259)"/>
  <path id="Path_25800" data-name="Path 25800" d="M77.665,43.006,74.783,38.54H72.19v4.466H70.461V32.057h4.754c2.593,0,4.034,1.153,4.034,3.169A2.922,2.922,0,0,1,76.656,38.4l3.025,4.61Zm-1.008-9.22c-.432-.288-.432-.288-1.729-.288H72.19v3.6h2.737c1.152,0,1.3,0,1.873-.432a1.849,1.849,0,0,0,.576-1.441A1.773,1.773,0,0,0,76.656,33.785Z" transform="translate(29.236 13.301)"/>
  <path id="Path_25801" data-name="Path 25801" d="M70.747,42.9a12.844,12.844,0,0,1-3.169.432c-3.746,0-6.483-2.449-6.483-5.763,0-3.169,2.737-5.619,6.339-5.619a11.428,11.428,0,0,1,2.449.288,4.964,4.964,0,0,1,1.585.72l-.72,1.441a3.151,3.151,0,0,1-.72-.432,7.583,7.583,0,0,0-2.593-.576c-2.593,0-4.61,1.729-4.61,4.178s2.161,4.322,4.9,4.322a7.276,7.276,0,0,0,2.161-.288V39.591H68.442V38.151h3.169v4.466C71.323,42.761,70.891,42.761,70.747,42.9Z" transform="translate(25.349 13.259)"/>
  <path id="Path_25802" data-name="Path 25802" d="M91.139,36.334V35.181c2.017-.432,2.593-1.152,2.593-3.025v-.432L92.147,14.292l-9.941,23.05L72.266,14.868,70.826,28.41a20.382,20.382,0,0,0-.144,2.737c0,2.593,1.009,3.458,4.178,3.89V36.19H63.334V35.037c3.025-.72,4.178-1.729,4.466-4.178l2.305-14.118a37,37,0,0,0,.432-3.89c0-1.729-1.152-2.593-3.89-2.593V9.25h8.212L83.5,28.7,91.859,9.25h8.212V10.4c-2.737.144-3.746.72-3.746,2.593v1.152l1.873,18.3c.144,1.873.864,2.449,3.025,2.737v1.152Z" transform="translate(26.279 3.838)" fill="#f30"/>
  <path id="Path_25803" data-name="Path 25803" d="M50.607,45.41c5.907-2.737,8.356-6.627,8.356-11.381l-.144-19.3c0-3.025-1.008-4.034-4.754-4.466V9.25h13.83v1.3c-3.458.288-4.322,1.152-4.466,4.178L63,32.588c-.144,8.068-4.61,12.534-11.957,13.4Z" transform="translate(20.998 3.838)" fill="#f30"/>
  <path id="Path_25804" data-name="Path 25804" d="M57.12,36.331H34.214V35.179c3.6-.288,4.61-1.3,4.61-4.322v-15.7c0-3.458-.72-4.322-3.746-4.754V9.247h20.89l.72,6.195-1.152.432c-2.017-3.746-3.313-4.61-7.2-4.754l-5.042-.144V21.493l3.89-.144c2.881-.144,3.746-.864,4.466-3.89H52.8V27.4H51.646c-.864-3.025-1.729-3.746-4.466-3.89l-3.89-.144v7.491c0,3.313.72,3.746,5.33,3.746,4.322,0,6.051-1.153,8.644-5.33l1.153.288Z" transform="translate(14.196 3.837)" fill="#f30"/>
  <path id="Path_25805" data-name="Path 25805" d="M46.537,13.087A24.52,24.52,0,0,0,15.851,1.706,24.405,24.405,0,0,0,1.733,33.545,24.747,24.747,0,0,0,33.715,47.663a.141.141,0,0,0,.144-.144V46.366A22.274,22.274,0,0,1,18.012,4.732a22,22,0,0,1,26.22,8.212H33.859V14.1c3.746.432,4.754,1.585,4.754,4.61l.432,15.271L21.182,13.087H13.69V14.24c3.89,1.153,4.754,2.449,4.754,6.915l-.72,13.4c-.144,3.169-1.153,4.178-4.9,4.466v1.152h13.4V39.019c-3.89-.144-5.186-1.3-5.186-4.466l-.288-15.559L39.334,41.036l1.873-1.585.72-20.6c0-3.025,1.009-4.178,4.61-4.61Z" transform="translate(0 0)" fill="#f30"/>
</svg>
