<svg xmlns="http://www.w3.org/2000/svg" width="32.111" height="32.119" viewBox="0 0 32.111 32.119">
  <g id="reshot-icon-thinking-8QTFZJ6UGS" transform="translate(0.017)">
    <path id="Path_26771" data-name="Path 26771" d="M11.992,35.6a.487.487,0,0,0-.243.644,13.309,13.309,0,0,1,.835,7.076.488.488,0,0,0,.411.552.631.631,0,0,0,.07.005.488.488,0,0,0,.481-.417,14.056,14.056,0,0,0-.908-7.619A.488.488,0,0,0,11.992,35.6Z" transform="translate(-3.883 -11.777)" fill="#f30"/>
    <path id="Path_26772" data-name="Path 26772" d="M31.8,16.9c-2.76-4.308-2.933-5.511-2.943-5.574C27.62.816,19.122,0,16.549,0c-.237,0-.443.005-.6.009l-.227,0c-.94,0-7.2.187-10.525,4.654a3.25,3.25,0,1,0-2.038,5.848c-.025.334-.043.679-.045,1.04v.078A23.317,23.317,0,0,0,3.62,16.84a.486.486,0,1,0,.948-.217,22.393,22.393,0,0,1-.486-4.986v-.073c0-.41.027-.8.062-1.176a3.287,3.287,0,0,0,1.037-.5l2.359,2.36a3.924,3.924,0,0,0,0,4.847L5.177,19.455a3.258,3.258,0,1,0,.688.688l2.364-2.364a3.927,3.927,0,0,0,4.848,0l2.363,2.363a3.26,3.26,0,1,0,.689-.688L13.764,17.09a3.924,3.924,0,0,0,0-4.847L16.127,9.88a3.293,3.293,0,1,0-.688-.689l-2.363,2.363a3.927,3.927,0,0,0-4.848,0L5.868,9.194A3.252,3.252,0,0,0,5.88,5.358C8.772,1.271,14.306.986,15.72.986L15.972.98c.153,0,.35-.009.579-.009,2.372,0,10.2.756,11.337,10.439.007.134.15,1.429,3.1,6.031a.819.819,0,0,1,.124.558.8.8,0,0,1-.429.477,21.242,21.242,0,0,1-2.56,1.217.486.486,0,0,0-.308.506,24.626,24.626,0,0,1,.051,5.16c-.134.707-1.739,1.181-3.989,1.181-1.338,0-2.105.881-2.105,2.422v2.653a.487.487,0,1,0,.973,0V28.958c0-1.284.606-1.449,1.133-1.449,1.707,0,4.615-.256,4.945-1.972a22.907,22.907,0,0,0,0-5.073,21.272,21.272,0,0,0,2.353-1.143,1.719,1.719,0,0,0,.893-1.117,1.771,1.771,0,0,0-.27-1.3ZM4.867,8.882a2.341,2.341,0,0,1-3.23,0,2.284,2.284,0,1,1,3.23,0Zm0,14.8a2.341,2.341,0,0,1-3.23,0,2.284,2.284,0,1,1,3.23,0Zm11.57-3.23a2.284,2.284,0,1,1,3.231,3.23,2.341,2.341,0,0,1-3.231,0,2.283,2.283,0,0,1,0-3.23Zm0-14.8a2.284,2.284,0,1,1,3.231,3.23,2.341,2.341,0,0,1-3.231,0,2.283,2.283,0,0,1,0-3.23Zm-5.785,6.037a2.977,2.977,0,1,1-2.976,2.978,2.977,2.977,0,0,1,2.976-2.978Z" transform="translate(0)" fill="#f30"/>
  </g>
</svg>
