<svg xmlns="http://www.w3.org/2000/svg" width="37.474" height="36.868" viewBox="0 0 37.474 36.868">
  <g id="Group_8123" data-name="Group 8123" transform="translate(-307.037 -1843.146)">
    <g id="Layer_x0020_1" transform="translate(307.037 1843.146)">
      <g id="_363995376" transform="translate(0)">
        <path id="_363997992" d="M256,647.449a23.349,23.349,0,0,0,37.474,0A23.349,23.349,0,0,0,256,647.449Z" transform="translate(-255.999 -629.014)" fill="none" fill-rule="evenodd"/>
        <g id="Group_8136" data-name="Group 8136" transform="translate(17.218)">
          <path id="_363997488" d="M1000.179,380.792v6.25l-.607,2.644-.615-2.636v-6.258Z" transform="translate(-998.049 -378.051)" fill="#f30"/>
          <circle id="_363997968" cx="1.519" cy="1.519" r="1.519" fill="#f30"/>
        </g>
        <g id="Group_8137" data-name="Group 8137" transform="translate(23.548 4.325)">
          <path id="_363997320" d="M1227.908,552.351l-4.419,4.419-2.3,1.44,1.429-2.3,4.425-4.425Z" transform="translate(-1221.19 -548.906)" fill="#f30"/>
          <circle id="_363996960" cx="1.519" cy="1.519" r="1.519" transform="translate(7.15) rotate(45)" fill="#f30"/>
        </g>
        <g id="Group_8138" data-name="Group 8138" transform="translate(4.627 4.325)">
          <path id="_363997440" d="M552.309,551.487l4.42,4.419,1.44,2.3-2.3-1.429-4.425-4.425Z" transform="translate(-548.864 -548.906)" fill="#f30"/>
          <circle id="_363996840" cx="1.519" cy="1.519" r="1.519" transform="translate(0 2.149) rotate(-45)" fill="#f30"/>
        </g>
        <g id="Group_8142" data-name="Group 8142" transform="translate(4.627 23.238)">
          <g id="Group_8139" data-name="Group 8139" transform="translate(12.59 1.994)">
            <path id="_363996816" d="M1000.179,1311.564v-6.25l-.607-2.643-.615,2.636v6.258Z" transform="translate(-998.049 -1302.67)" fill="#f30"/>
            <circle id="_363997368" cx="1.519" cy="1.519" r="1.519" transform="translate(0 8.596)" fill="#f30"/>
          </g>
          <g id="Group_8140" data-name="Group 8140" transform="translate(18.921)">
            <path id="_363997392" d="M1227.908,1226.789l-4.419-4.42-2.3-1.44,1.429,2.3,4.425,4.425Z" transform="translate(-1221.19 -1220.93)" fill="#f30"/>
            <circle id="_363996048" cx="1.519" cy="1.519" r="1.519" transform="translate(5.001 7.155) rotate(-45)" fill="#f30"/>
          </g>
          <g id="Group_8141" data-name="Group 8141" transform="translate(0 0.005)">
            <path id="_363996600" d="M552.309,1227.858l4.42-4.419,1.44-2.3-2.3,1.429-4.425,4.425Z" transform="translate(-548.864 -1221.14)" fill="#f30"/>
            <circle id="_363996192" cx="1.519" cy="1.519" r="1.519" transform="translate(2.149 5.002) rotate(45)" fill="#f30"/>
          </g>
        </g>
        <path id="_363995952" d="M953.062,797.564c-.6,0-1.047,1.084-1.2,1.537a9.848,9.848,0,0,0-.416,1.785,15.819,15.819,0,0,0,0,4.4,9.852,9.852,0,0,0,.416,1.785c.157.453.6,1.537,1.2,1.537s1.047-1.084,1.2-1.537a9.862,9.862,0,0,0,.416-1.785,15.844,15.844,0,0,0,0-4.4,9.858,9.858,0,0,0-.416-1.785C954.108,798.648,953.664,797.564,953.062,797.564Zm0,.71c.27,0,.432.272.526.489a4.866,4.866,0,0,1,.285,1.033,14.277,14.277,0,0,1,.185,1.485c.047.6.068,1.205.068,1.808s-.021,1.207-.068,1.808a14.288,14.288,0,0,1-.185,1.485,4.866,4.866,0,0,1-.285,1.033c-.095.217-.256.489-.526.489s-.432-.272-.526-.489a4.88,4.88,0,0,1-.285-1.033,14.355,14.355,0,0,1-.185-1.485c-.047-.6-.068-1.205-.068-1.808s.021-1.207.068-1.808a14.344,14.344,0,0,1,.185-1.485,4.88,4.88,0,0,1,.285-1.033C952.63,798.546,952.792,798.274,953.062,798.274Z" transform="translate(-934.325 -784.655)" fill="#f30" fill-rule="evenodd"/>
        <path id="_363995712" d="M864.64,856.823c-.426-.426-1.506.026-1.938.236a9.852,9.852,0,0,0-1.556.968,15.833,15.833,0,0,0-3.115,3.115,9.859,9.859,0,0,0-.968,1.557c-.21.432-.662,1.512-.236,1.938s1.506-.026,1.938-.236a9.843,9.843,0,0,0,1.556-.967,15.833,15.833,0,0,0,3.114-3.115,9.848,9.848,0,0,0,.968-1.556C864.614,858.33,865.066,857.25,864.64,856.823Zm-.5.5c.191.191.112.5.026.718a4.874,4.874,0,0,1-.529.932,14.273,14.273,0,0,1-.919,1.181c-.392.458-.8.9-1.231,1.326s-.868.839-1.326,1.231a14.285,14.285,0,0,1-1.181.919,4.872,4.872,0,0,1-.932.529c-.22.086-.527.165-.718-.026s-.113-.5-.026-.718a4.87,4.87,0,0,1,.529-.932,14.358,14.358,0,0,1,.919-1.181c.392-.458.8-.9,1.231-1.326s.868-.839,1.326-1.231a14.38,14.38,0,0,1,1.181-.919,4.874,4.874,0,0,1,.932-.529C863.64,857.213,863.947,857.134,864.138,857.325Z" transform="translate(-841.996 -842.296)" fill="#f30" fill-rule="evenodd"/>
        <path id="_363995808" d="M808.616,953.062c0-.6-1.084-1.047-1.537-1.2a9.848,9.848,0,0,0-1.785-.416,15.82,15.82,0,0,0-4.4,0,9.853,9.853,0,0,0-1.785.416c-.453.157-1.537.6-1.537,1.2s1.084,1.047,1.537,1.2a9.863,9.863,0,0,0,1.785.416,15.845,15.845,0,0,0,4.4,0,9.858,9.858,0,0,0,1.785-.416C807.532,954.108,808.616,953.664,808.616,953.062Zm-.709,0c0,.27-.273.432-.489.526a4.866,4.866,0,0,1-1.033.285,14.282,14.282,0,0,1-1.485.185c-.6.047-1.205.068-1.808.068s-1.207-.021-1.808-.068a14.286,14.286,0,0,1-1.485-.185,4.866,4.866,0,0,1-1.033-.285c-.217-.095-.489-.256-.489-.526s.272-.432.489-.526a4.88,4.88,0,0,1,1.033-.285,14.353,14.353,0,0,1,1.485-.185c.6-.047,1.205-.068,1.808-.068s1.207.021,1.808.068a14.348,14.348,0,0,1,1.485.185,4.88,4.88,0,0,1,1.033.285C807.634,952.63,807.907,952.792,807.907,953.062Z" transform="translate(-784.355 -934.628)" fill="#f30" fill-rule="evenodd"/>
        <path id="_363995232" d="M864.631,864.64c.426-.426-.026-1.506-.236-1.938a9.852,9.852,0,0,0-.968-1.556,15.824,15.824,0,0,0-3.115-3.115,9.853,9.853,0,0,0-1.557-.968c-.432-.21-1.512-.662-1.938-.236s.026,1.506.236,1.938a9.863,9.863,0,0,0,.968,1.556,15.838,15.838,0,0,0,3.114,3.114,9.847,9.847,0,0,0,1.557.968C863.125,864.614,864.2,865.066,864.631,864.64Zm-.5-.5c-.191.191-.5.112-.718.026a4.869,4.869,0,0,1-.932-.529,14.288,14.288,0,0,1-1.181-.919c-.458-.392-.9-.8-1.326-1.231s-.839-.868-1.231-1.326a14.31,14.31,0,0,1-.919-1.181,4.872,4.872,0,0,1-.529-.932c-.086-.22-.165-.527.026-.718s.5-.113.718-.026a4.877,4.877,0,0,1,.932.529,14.356,14.356,0,0,1,1.181.919c.458.392.9.8,1.326,1.231s.839.868,1.231,1.326a14.344,14.344,0,0,1,.919,1.181,4.873,4.873,0,0,1,.529.932C864.242,863.64,864.32,863.947,864.129,864.138Z" transform="translate(-841.988 -842.3)" fill="#f30" fill-rule="evenodd"/>
        <circle id="_363995256" cx="0.668" cy="0.668" r="0.668" transform="translate(18.069 17.766)" fill="#f30"/>
      </g>
    </g>
  </g>
</svg>
