<svg xmlns="http://www.w3.org/2000/svg" width="25.161" height="25.161" viewBox="0 0 25.161 25.161">
  <g id="download_1_" data-name="download (1)" transform="translate(0.5 0.5)">
    <g id="Group_639" data-name="Group 639">
      <path id="Path_11525" data-name="Path 11525" d="M21.08,25.161A12.08,12.08,0,1,0,9,13.08,12.08,12.08,0,0,0,21.08,25.161Z" transform="translate(-9 -1)" fill="none" stroke="#f30" stroke-width="1" fill-rule="evenodd"/>
    </g>
    <path id="Path_11526" data-name="Path 11526" d="M25.272,27.543A10.272,10.272,0,1,0,15,17.272,10.272,10.272,0,0,0,25.272,27.543Z" transform="translate(-13.191 -5.191)" fill="#f30" fill-rule="evenodd" opacity="0.16"/>
    <path id="Path_11527" data-name="Path 11527" d="M11.424,17.664,7.1,13.707a.6.6,0,0,1,0-.858l.959-.858a.6.6,0,0,1,.454-.191.687.687,0,0,1,.479.191l2.9,2.669,6.221-5.72a.687.687,0,0,1,.48-.191.6.6,0,0,1,.453.191L20,9.8a.6.6,0,0,1,0,.858l-7.646,7.007a.666.666,0,0,1-.933,0Z" transform="translate(-1.469 -1.222)" fill="#f30"/>
  </g>
</svg>
