<svg xmlns="http://www.w3.org/2000/svg" width="45.206" height="44.861" viewBox="0 0 45.206 44.861">
  <g id="noun_quotation_1568876" transform="translate(-0.833 -1.071)">
    <g id="Group_7290" data-name="Group 7290" transform="translate(0.833 1.071)">
      <path id="Path_15020" data-name="Path 15020" d="M43.681,24.18C42.532,24.066,40,24.066,40,22.457c0-2.182,3.216-5.054,8.386-8.156,1.608-1.034,4.94-2.642,4.94-4.825,0-1.723-1.264-2.986-3.906-2.642-2.527.344-6.433,2.068-11.6,6.433-5.4,4.48-10.453,11.947-10.453,19.3,0,7.467,5.054,14.934,13.211,14.934,6.547,0,12.176-4.939,12.176-11.717C52.755,30.613,49.194,24.64,43.681,24.18Z" transform="translate(-8.125 -2.639)" fill="#f30"/>
      <path id="Path_15021" data-name="Path 15021" d="M20.241,19.382a8.092,8.092,0,0,0-3.1-.909c-1.149-.115-3.676-.115-3.676-1.723,0-2.182,3.216-5.054,8.386-8.156,1.609-1.034,4.939-2.642,4.939-4.825,0-1.723-1.264-2.986-3.906-2.642-2.527.344-6.433,2.068-11.6,6.433C5.888,12.041.833,19.507.833,26.86c0,7.467,5.054,14.934,13.211,14.934a12.706,12.706,0,0,0,5.4-1.2A20.018,20.018,0,0,1,16.973,31,24.333,24.333,0,0,1,20.241,19.382Z" transform="translate(-0.833 -1.071)" fill="#f30"/>
    </g>
  </g>
</svg>
