<svg id="reshot-icon-progress-5HAWZ9NGF2" xmlns="http://www.w3.org/2000/svg" width="26.159" height="26.16" viewBox="0 0 26.159 26.16">
  <path id="Path_26773" data-name="Path 26773" d="M4.483,29.806H.4a.4.4,0,0,0-.4.4v9.124a.4.4,0,0,0,.4.4H4.484a.4.4,0,0,0,.4-.4V30.2a.4.4,0,0,0-.4-.4Zm-.4.792v1.821H.793V30.6Zm0,4.831H.793v-2.22H4.087Zm0,3.5H.793V36.221H4.087Z" transform="translate(0 -13.563)" fill="#f30"/>
  <path id="Path_26774" data-name="Path 26774" d="M17.5,13.318H13.412a.4.4,0,0,0-.4.4V31.824a.4.4,0,0,0,.4.4H17.5a.4.4,0,0,0,.4-.4V13.715A.4.4,0,0,0,17.5,13.318Zm-.4.793V18.5H13.808V14.111Zm0,10.368H13.808V19.292H17.1Zm0,6.947H13.808V25.272H17.1Z" transform="translate(-5.922 -6.06)" fill="#f30"/>
  <path id="Path_26775" data-name="Path 26775" d="M30.514,18.167H26.427a.4.4,0,0,0-.4.4V34.03a.4.4,0,0,0,.4.4h4.087a.4.4,0,0,0,.4-.4V18.563a.4.4,0,0,0-.4-.4Zm-.4.793v3.632H26.823V18.96Zm0,8.739H26.823V23.385h3.294Zm0,5.934H26.823V28.492h3.294Z" transform="translate(-11.844 -8.266)" fill="#f30"/>
  <path id="Path_26776" data-name="Path 26776" d="M43.529,0H39.442a.4.4,0,0,0-.4.4V25.763a.4.4,0,0,0,.4.4h4.087a.4.4,0,0,0,.4-.4V.4A.4.4,0,0,0,43.529,0Zm-.4.793V7.257H39.838V.793Zm0,14.841H39.838V8.051h3.294Zm0,9.732H39.838V16.428h3.294Z" transform="translate(-17.767 0)" fill="#f30"/>
  <path id="Path_26777" data-name="Path 26777" d="M.4,13.865a.4.4,0,0,0,.4-.4V.793H18.5A.4.4,0,0,0,18.5,0H.4A.4.4,0,0,0,0,.4V13.468a.4.4,0,0,0,.4.4Z" transform="translate(0 0)" fill="#f30"/>
</svg>
