<svg xmlns="http://www.w3.org/2000/svg" width="26.204" height="26.212" viewBox="0 0 26.204 26.212">
  <g id="Group_7814" data-name="Group 7814" transform="translate(-8.647 -3.517)">
    <g id="Group_7815" data-name="Group 7815" transform="translate(-61.326 3.518)">
      <path id="Path_25808" data-name="Path 25808" d="M244.78,194.82h1.593v1.593H244.78Z" transform="translate(-166.627 -185.705)" fill="#fff"/>
      <path id="Path_25809" data-name="Path 25809" d="M421.18,194.82h1.593v1.593H421.18Z" transform="translate(-334.772 -185.705)" fill="#fff"/>
      <path id="Path_25810" data-name="Path 25810" d="M95.461,8.835A4.009,4.009,0,0,0,95.5,4.323L92.249,0,90.511,2.321a13.1,13.1,0,1,0,4.95,6.515Zm-12.384,15.8A11.53,11.53,0,1,1,89.568,3.579l-.558.742a3.97,3.97,0,0,0,3.042,6.187h.406a3.821,3.821,0,0,0,1.727-.493A11.53,11.53,0,0,1,83.077,24.631Z" transform="translate(0)" fill="#fff"/>
      <path id="Path_25811" data-name="Path 25811" d="M180.77,287.481c1.022.134,3.477,4.878,7.919,4.878s7.281-4.878,7.281-4.878Z" transform="translate(-105.614 -271.169)" fill="none" stroke="#fff" stroke-width="1"/>
    </g>
  </g>
</svg>
