<svg xmlns="http://www.w3.org/2000/svg" width="28.953" height="26.885" viewBox="0 0 28.953 26.885">
  <g id="Group_8085" data-name="Group 8085" transform="translate(-311.797 -1848.508)">
    <path id="Path_26764" data-name="Path 26764" d="M213.553,128.33a2.068,2.068,0,0,1,2.068,2.068V147.46a2.068,2.068,0,0,1-2.068,2.068H201.92v4.136h12.925a.776.776,0,0,1,0,1.551h-27.4a.776.776,0,1,1,0-1.551h12.925v-4.136H188.736a2.068,2.068,0,0,1-2.068-2.068V130.4a2.068,2.068,0,0,1,2.068-2.068Zm-20.929,8.686L191.5,139.28h0a.786.786,0,0,1-.693.424h-2.585v7.755a.517.517,0,0,0,.517.517h24.817a.517.517,0,0,0,.517-.517V139.7H199.077a.754.754,0,0,1-.538-.217l-1.179-1.179-1.675,5.015h0a.775.775,0,0,1-1.479,0Zm20.929-7.135H188.736a.517.517,0,0,0-.517.517v7.755h2.068l1.851-3.712a.776.776,0,0,1,1.438.145l1.417,5.687,1.282-3.671a.775.775,0,0,1,1.272-.31l1.841,1.841H214.07V130.4a.517.517,0,0,0-.517-.517Z" transform="translate(125.129 1720.178)" fill="#099"/>
  </g>
</svg>
