<svg xmlns="http://www.w3.org/2000/svg" width="27.195" height="27.194" viewBox="0 0 27.195 27.194">
  <g id="Group_8089" data-name="Group 8089" transform="translate(-309.4 -1845.231)">
    <g id="reshot-icon-graph-C3KN6VGJ25" transform="translate(309.4 1845.231)">
      <path id="Path_26756" data-name="Path 26756" d="M128.176,65.62a.585.585,0,0,1-.5-.305.571.571,0,0,1,.222-.749l4.828-2.525a.553.553,0,1,1,.527.971l-4.828,2.525A.448.448,0,0,1,128.176,65.62Z" transform="translate(-106.448 -58.85)" fill="#099"/>
      <path id="Path_26757" data-name="Path 26757" d="M109.592,89.134a.653.653,0,0,1-.222-.055.528.528,0,0,1-.277-.721l1.8-4.024a.536.536,0,0,1,.721-.277.528.528,0,0,1,.277.721l-1.8,4.024A.548.548,0,0,1,109.592,89.134Z" transform="translate(-93.025 -74.76)" fill="#099"/>
      <path id="Path_26758" data-name="Path 26758" d="M82.723,113.745a.508.508,0,0,1-.5-.333.551.551,0,0,1,.277-.721l4.024-1.8a.547.547,0,1,1,.444,1l-4.024,1.8A.523.523,0,0,1,82.723,113.745Z" transform="translate(-73.62 -94.155)" fill="#099"/>
      <path id="Path_26759" data-name="Path 26759" d="M63.146,134.721a.81.81,0,0,1-.25-.055.593.593,0,0,1-.277-.749l1.97-4.051a.565.565,0,0,1,1.028.472L63.7,134.388A.641.641,0,0,1,63.146,134.721Z" transform="translate(-59.456 -107.666)" fill="#099"/>
      <path id="Path_26760" data-name="Path 26760" d="M67.394,118.025a3.163,3.163,0,1,1,3.163-3.163A3.162,3.162,0,0,1,67.394,118.025Zm0-5.217a2.053,2.053,0,1,0,2.053,2.053A2.049,2.049,0,0,0,67.394,112.808Z" transform="translate(-60.65 -94.771)" fill="#099"/>
      <path id="Path_26761" data-name="Path 26761" d="M99,103.925a3.163,3.163,0,1,1,3.163-3.163A3.162,3.162,0,0,1,99,103.925Zm0-5.189a2.053,2.053,0,1,0,2.053,2.053A2.049,2.049,0,0,0,99,98.736Z" transform="translate(-83.485 -84.584)" fill="#099"/>
      <path id="Path_26762" data-name="Path 26762" d="M113.1,72.325a3.163,3.163,0,1,1,3.163-3.163A3.162,3.162,0,0,1,113.1,72.325Zm0-5.217a2.053,2.053,0,1,0,2.053,2.053A2.049,2.049,0,0,0,113.1,67.108Z" transform="translate(-93.672 -61.752)" fill="#099"/>
      <path id="Path_26763" data-name="Path 26763" d="M76.444,77.892H51.885a.555.555,0,1,1,0-1.11H76.444a.983.983,0,0,0,.971-.971V51.253a.555.555,0,0,1,1.11,0V75.811A2.1,2.1,0,0,1,76.444,77.892Z" transform="translate(-51.33 -50.698)" fill="#099"/>
    </g>
  </g>
</svg>
