<svg xmlns="http://www.w3.org/2000/svg" width="28.826" height="39.562" viewBox="0 0 28.826 39.562">
  <g id="Group_8087" data-name="Group 8087" transform="translate(-314.711 -1844.847)">
    <g id="reshot-icon-time-L2K97HPBQ5" transform="translate(315.461 1845.597)">
      <path id="path3" d="M32.094,46.062H21.531A3.031,3.031,0,0,1,18.5,43.031V37.393c0-3.775,4.2-7.27,6.6-9.195h0a1.494,1.494,0,0,0,0-2.333h0c-2.4-1.925-6.6-5.42-6.6-9.195V11.031A3.031,3.031,0,0,1,21.531,8H36.442a3.031,3.031,0,0,1,3.031,3.031v5.638c0,3.775-4.2,7.27-6.6,9.195h0a1.494,1.494,0,0,0,0,2.333h0a30.77,30.77,0,0,1,4.184,3.882" transform="translate(-18.5 -8)" fill="none" stroke="#099" stroke-linecap="round" stroke-linejoin="round" stroke-miterlimit="2" stroke-width="1.5" fill-rule="evenodd"/>
      <path id="path5" d="M31.657,50.491c-2.622.008-5.554.008-7.212.008a.941.941,0,0,1-.875-1.289c.666-1.155,3.484-4.678,5.194-6.784a1.655,1.655,0,0,1,2.619.026c1.01,1.312,2.4,3.132,3.381,4.431" transform="translate(-19.617 -15.544)" fill="none" stroke="#099" stroke-linecap="round" stroke-linejoin="round" stroke-miterlimit="2" stroke-width="0.5" fill-rule="evenodd"/>
      <path id="path7" d="M27.936,25.491a66.975,66.975,0,0,1-4.366-5.7.941.941,0,0,1,.875-1.289c1.6,0,2.332,1.935,4.882,1.942,1.216,0,4.434-1.927,5.388-1.92a1.361,1.361,0,0,1,1.118,2.138c-.494.731-2.916,3.9-4.449,5.887a.756.756,0,0,1-.09.1,4.04,4.04,0,0,0-1.174,2.846c-.039.583-.039,1.049-.039,1.049" transform="translate(-19.617 -10.344)" fill="none" stroke="#099" stroke-linecap="round" stroke-linejoin="round" stroke-miterlimit="2" stroke-width="0.5" fill-rule="evenodd"/>
      <path id="path11" d="M50.428,41.33A2.33,2.33,0,0,0,48.1,39H40.33A2.33,2.33,0,0,0,38,41.33v5.122a5.826,5.826,0,0,0,3.492,5.338l2.723,1.192,2.723-1.192a5.826,5.826,0,0,0,3.492-5.338Z" transform="translate(-22.853 -14.92)" fill="none" stroke="#099" stroke-linecap="round" stroke-linejoin="round" stroke-miterlimit="2" stroke-width="1" fill-rule="evenodd"/>
      <path id="path13" d="M42.75,46.913l1.942,1.554L47.8,45.748" transform="translate(-23.913 -16.426)" fill="none" stroke="#099" stroke-linecap="round" stroke-linejoin="round" stroke-miterlimit="2" stroke-width="0.5" fill-rule="evenodd"/>
    </g>
  </g>
</svg>
