<svg xmlns="http://www.w3.org/2000/svg" width="24.992" height="24.992" viewBox="0 0 24.992 24.992">
  <g id="download_1_" data-name="download (1)" transform="translate(0.5 0.5)">
    <g id="Group_639" data-name="Group 639">
      <path id="Path_11525" data-name="Path 11525" d="M21,24.992A12,12,0,1,0,9,13,12,12,0,0,0,21,24.992Z" transform="translate(-9 -1)" fill="none" stroke="#fff" stroke-width="1" fill-rule="evenodd"/>
    </g>
    <path id="Path_11527" data-name="Path 11527" d="M11.393,17.6l-4.3-3.929a.594.594,0,0,1,0-.852l.952-.852a.6.6,0,0,1,.45-.189.682.682,0,0,1,.476.189l2.883,2.651,6.177-5.68a.682.682,0,0,1,.476-.189.6.6,0,0,1,.45.189l.952.852a.594.594,0,0,1,0,.852L12.319,17.6a.661.661,0,0,1-.927,0Z" transform="translate(-1.507 -1.274)" fill="#fff"/>
  </g>
</svg>
