<svg xmlns="http://www.w3.org/2000/svg" width="28.953" height="36.03" viewBox="0 0 28.953 36.03">
  <g id="reshot-icon-study-program-VSK84D2JT5" transform="translate(-7.065)">
    <g id="Group_8108" data-name="Group 8108" transform="translate(7.065)">
      <g id="Group_8104" data-name="Group 8104">
        <path id="Path_26741" data-name="Path 26741" d="M45.31,19.817H44.157V1.866A.665.665,0,0,0,43.5,1.2H22.741a.665.665,0,0,0-.658.67v29.82H20.93V1.866A1.841,1.841,0,0,1,22.741,0H43.5A1.842,1.842,0,0,1,45.31,1.866Z" transform="translate(-20.93)" fill="#099"/>
      </g>
      <g id="Group_8105" data-name="Group 8105" transform="translate(0.43 30.534)">
        <rect id="Rectangle_2194" data-name="Rectangle 2194" width="13.879" height="1.153" fill="#099"/>
      </g>
      <g id="Group_8107" data-name="Group 8107" transform="translate(2.716 3.6)">
        <rect id="Rectangle_2196" data-name="Rectangle 2196" width="18.947" height="1.153" fill="#099"/>
      </g>
    </g>
    <g id="Group_8109" data-name="Group 8109" transform="translate(19.922 11.732)">
      <path id="Path_26742" data-name="Path 26742" d="M83.787,68H82.634v-2.17l.234-.173a3.276,3.276,0,0,0,1.348-2.653V56.25l-.072-1.465a.887.887,0,0,0-.887-.9c-.884,0-.887.355-.887.508v0H81.216v-.361a.886.886,0,0,0-1.772,0H78.291v-.725a.887.887,0,0,0-1.773,0v.815H75.365c0-1.961-.013-8.342-.013-8.342a.937.937,0,0,0-1.874,0L73.47,60.418l-1.152.024-.03-.713V56.712a1.65,1.65,0,0,0-1.659-1.636h-.168v2.146l.069.453-.069.022v3.041L74.5,65.491a7.164,7.164,0,0,0,1.529.735l.441.106V68H75.317v-.8a10.5,10.5,0,0,1-1.5-.781l-.075-.047-4.432-5.213V57.3l-.016-.439.017-.005V55.008l-.034,0,.034-.671v-.369h.024l0-.039h1.295a2.815,2.815,0,0,1,1.693.563l0-8.706a2.09,2.09,0,0,1,4.18,0h0s.006,3.152.01,5.707a2.048,2.048,0,0,1,2.685.862,2.045,2.045,0,0,1,2.868.626,2.667,2.667,0,0,1,1.188-.242A2.034,2.034,0,0,1,85.3,54.756l.072,1.465v6.786a4.409,4.409,0,0,1-1.581,3.4Z" transform="translate(-69.272 -43.705)" fill="#099"/>
    </g>
    <g id="Group_8113" data-name="Group 8113" transform="translate(10.99 6.357)">
      <path id="Path_26745" data-name="Path 26745" d="M41.7,28.285h-7.15v-5.6H41.7Zm-6-1.153h4.844v-3.3H35.7Z" transform="translate(-34.546 -22.68)" fill="#099"/>
    </g>
    <g id="Group_8118" data-name="Group 8118" transform="translate(24.877 5.967)">
      <path id="Path_26746" data-name="Path 26746" d="M86.269,25.907H85.116V24.754h1.153Zm0-2.306H85.116V22.448h1.153ZM85.116,21.3V21.27h1.153Z" transform="translate(-85.116 -21.27)" fill="#099"/>
    </g>
  </g>
</svg>
