<svg xmlns="http://www.w3.org/2000/svg" width="35.333" height="35.333" viewBox="0 0 35.333 35.333">
  <g id="Layer_1" transform="translate(-61.94 -62.419)">
    <g id="Group_8103" data-name="Group 8103" transform="translate(61.94 62.419)">
      <g id="Group_8102" data-name="Group 8102" transform="translate(0 0)">
        <g id="Group_8101" data-name="Group 8101">
          <g id="Group_8094" data-name="Group 8094">
            <g id="Group_8092" data-name="Group 8092" transform="translate(9.781 22.822)">
              <g id="Group_8090" data-name="Group 8090">
                <path id="Path_26733" data-name="Path 26733" d="M167.885,312.483a.544.544,0,0,1-.55-.61,9.418,9.418,0,0,0-1.9-7.3,6.333,6.333,0,0,1-1.452-3.48.551.551,0,1,1,1.1-.034,5.345,5.345,0,0,0,1.261,2.892,10.474,10.474,0,0,1,2.082,8.042A.547.547,0,0,1,167.885,312.483Z" transform="translate(-163.985 -300.521)" fill="#099" fill-rule="evenodd"/>
              </g>
              <g id="Group_8091" data-name="Group 8091" transform="translate(9.833 6.575)">
                <path id="Path_26734" data-name="Path 26734" d="M267.158,374.787a.552.552,0,0,1-.552-.543c0-.311-.009-.6-.016-.888a11.72,11.72,0,0,1,.281-3.862.552.552,0,1,1,1.042.366,11.2,11.2,0,0,0-.219,3.476c0,.285.012.58.016.895a.549.549,0,0,1-.543.559S267.163,374.787,267.158,374.787Z" transform="translate(-266.572 -369.125)" fill="#099" fill-rule="evenodd"/>
              </g>
            </g>
            <g id="Group_8093" data-name="Group 8093">
              <path id="Path_26735" data-name="Path 26735" d="M79.607,97.753a17.616,17.616,0,1,1,6.876-1.39,17.53,17.53,0,0,1-6.876,1.39Zm0-34.229a16.518,16.518,0,1,0,6.446,1.3A16.425,16.425,0,0,0,79.607,63.523Z" transform="translate(-61.94 -62.419)" fill="#099" fill-rule="evenodd"/>
            </g>
          </g>
          <g id="Group_8100" data-name="Group 8100" transform="translate(9.763 8.121)">
            <g id="Group_8095" data-name="Group 8095" transform="translate(0 2.917)">
              <path id="Path_26736" data-name="Path 26736" d="M164.373,190.47a.554.554,0,0,1-.552-.536c-.018-.589-.025-9.76-.007-10.329a2.144,2.144,0,0,1,.554-1.426,1.93,1.93,0,0,1,2.645-.138,2.059,2.059,0,0,1,.6,1.583.551.551,0,0,1-.552.552h0a.552.552,0,0,1-.552-.552,1.017,1.017,0,0,0-.244-.771.808.808,0,0,0-.587-.166.892.892,0,0,0-.764.95c-.016.52-.009,9.726.007,10.262a.552.552,0,0,1-.534.568A.051.051,0,0,1,164.373,190.47Z" transform="translate(-163.803 -177.582)" fill="#099" fill-rule="evenodd"/>
            </g>
            <g id="Group_8096" data-name="Group 8096" transform="translate(10.119 11.455)">
              <path id="Path_26737" data-name="Path 26737" d="M269.928,277.583a.538.538,0,0,1-.2-.037.553.553,0,0,1-.317-.713c.69-1.8,2.574-3.57,4.235-5.134.725-.683,1.41-1.327,1.912-1.9a2.652,2.652,0,0,0,.773-1.244.711.711,0,0,0-.244-.607.976.976,0,0,0-.55-.182,2.9,2.9,0,0,0-1.541.545c-.1.064-.5.368-.916.69-.642.495-1.523,1.169-2.25,1.684a.553.553,0,0,1-.637-.9c.709-.5,1.58-1.169,2.215-1.656.561-.432.863-.66,1-.748.911-.575,2.222-1.1,3.313-.336a1.806,1.806,0,0,1,.709,1.619c-.106,1.086-1.4,2.3-3.027,3.839-1.576,1.484-3.361,3.168-3.961,4.73A.543.543,0,0,1,269.928,277.583Z" transform="translate(-269.376 -266.661)" fill="#099" fill-rule="evenodd"/>
            </g>
            <g id="Group_8097" data-name="Group 8097" transform="translate(2.707 1.085)">
              <path id="Path_26738" data-name="Path 26738" d="M192.649,168.974a.552.552,0,0,1-.552-.545c-.014-1.086-.083-6.577-.025-8.118a1.852,1.852,0,0,1,1.8-1.843h0a2.105,2.105,0,0,1,1.277.389,1.753,1.753,0,0,1,.672,1.472.552.552,0,0,1-.55.554h0a.553.553,0,0,1-.552-.55c0-.207,0-.759-.847-.761h0a.744.744,0,0,0-.7.78c-.055,1.516.012,6.982.025,8.063a.551.551,0,0,1-.545.559Z" transform="translate(-192.049 -158.468)" fill="#099" fill-rule="evenodd"/>
            </g>
            <g id="Group_8098" data-name="Group 8098" transform="translate(5.377)">
              <path id="Path_26739" data-name="Path 26739" d="M220.48,158.1a.551.551,0,0,1-.552-.548c-.011-1.509-.018-7.069-.018-7.246l0-.193c-.021-1.316-.028-1.757.357-2.231a2.053,2.053,0,0,1,1.822-.718,2.027,2.027,0,0,1,1.155.524,1.671,1.671,0,0,1,.52,1.18c.014.593.016,1.4.018,2.178,0,.207,0,.412,0,.607a.549.549,0,0,1-.55.554h0a.553.553,0,0,1-.552-.55c0-.2,0-.4,0-.61,0-.773,0-1.573-.018-2.158-.007-.265-.2-.57-.708-.637a.952.952,0,0,0-.826.317c-.122.152-.129.368-.11,1.521l0,.2v.007c0,.058.009,5.721.018,7.244a.552.552,0,0,1-.547.557A.007.007,0,0,1,220.48,158.1Z" transform="translate(-219.899 -147.144)" fill="#099" fill-rule="evenodd"/>
            </g>
            <g id="Group_8099" data-name="Group 8099" transform="translate(8.149 1.189)">
              <path id="Path_26740" data-name="Path 26740" d="M251.938,173.941a.551.551,0,0,1-.552-.552c0-.8.009-2.979.018-5.282.011-2.705.023-5.5.023-6.712a.68.68,0,0,0-.794-.745.652.652,0,0,0-.7.757c0,.048.018,5.008,0,7.672a.552.552,0,0,1-1.1-.009c.018-2.657,0-7.612,0-7.66a1.814,1.814,0,0,1,.58-1.431,1.843,1.843,0,0,1,1.226-.43,1.8,1.8,0,0,1,1.527.676,1.947,1.947,0,0,1,.368,1.173c0,1.212-.011,4.009-.023,6.717-.009,2.3-.018,4.476-.018,5.277A.55.55,0,0,1,251.938,173.941Z" transform="translate(-248.828 -159.548)" fill="#099" fill-rule="evenodd"/>
            </g>
          </g>
        </g>
      </g>
    </g>
  </g>
</svg>
